<?xml version="1.0" encoding="UTF-8" standalone="no"?>
<!-- Created with Inkscape (http://www.inkscape.org/) -->
<svg
   xmlns:svg="http://www.w3.org/2000/svg"
   xmlns="http://www.w3.org/2000/svg"
   xmlns:xlink="http://www.w3.org/1999/xlink"
   version="1.0"
   width="382"
   height="382"
   id="svg2"
   xml:space="preserve"><defs
     id="defs5"><linearGradient
       id="linearGradient3778"><stop
         id="stop3780"
         style="stop-color:#fffb17;stop-opacity:1"
         offset="0" /><stop
         id="stop3782"
         style="stop-color:#fd0a02;stop-opacity:1"
         offset="1" /></linearGradient><linearGradient
       x1="3.4597483"
       y1="94.534683"
       x2="3.4597483"
       y2="146.81529"
       id="linearGradient2933"
       xlink:href="#linearGradient3778"
       gradientUnits="userSpaceOnUse"
       gradientTransform="matrix(1.327461,0,0,1.6399196,209.15159,-127.30368)" /><clipPath
       id="clipPath2935"><path
         d="m 197.29637,106.55888 c -5.95812,-6.88138 -7.9725,-22.180755 -6.63625,-26.52413 1.88225,-6.11325 3.9805,-8.7045 10.001,-11.5575 2.30175,-1.087875 5.74225,-1.834375 7.67838,-3.21175 1.81912,-1.294375 2.09862,-3.948625 0.057,-5.7755 -2.15038,-1.9265 -4.89825,-1.296125 -8.45188,-0.367875 -0.15587,0.03937 -0.423,0.23325 -0.46375,0.393 -0.10812,0.431875 0.068,0.91525 0.29338,1.508 -2.45913,-0.934 -5.07125,-2.79 -5.44963,-4.029125 -1.20687,-3.946125 3.32038,-7.2665 9.12225,-7.117 -0.64562,-3.264125 -0.65487,-5.02725 3.504,-4.751625 6.116,0.41 10.17213,2.474625 16.22438,4.032 0.49012,0.126125 2.89312,0.80675 3.28075,0.462375 0.26075,-0.233125 0.42487,-1.284875 0.788,-2.145125 0.33875,1.091 0.68775,2.4895 0.25162,3.57625 -0.67887,1.696125 -8.00187,0.08363 -9.4185,-0.09112 -0.27912,0.39375 -0.14525,1.212625 0.19813,1.306125 4.11512,1.1165 7.74,4.822375 8.7435,6.511875 1.66525,2.804875 1.98875,5.58075 1.46975,8.073375 -0.4745,2.279125 -4.004,6.860625 -6.002,9.495 -2.62675,3.458375 -4.1655,5.478375 -1.715,8.208875 1.26287,1.405625 7.717,1.993375 14.22987,-0.689875 5.709,-2.3525 14.31538,-11.171 14.27563,-20.86725 -0.0769,-19.02588 -15.71025,-31.95213 -33.29925,-34.27763 -0.79188,-0.1205 -0.79613,-0.992875 -0.004,-0.992875 16.20325,-0.0012 40.63537,14.901375 40.63537,42.809875 0,24.00625 -19.98287,42.856 -42.187,42.856 -8.86,0 -13.15312,-2.24437 -17.1255,-6.83437 z M 170.87925,70.52775 c 0,-27.8175 24.46187,-42.802125 40.63575,-42.802125 0.7975,0 0.79937,0.873125 0.003,0.98825 -17.83738,2.06825 -30.927,13.68075 -34.0625,30.832125 -2.48275,13.5815 2.74287,26.682125 12.49162,34.587875 1.28938,6.899255 5.15088,13.898625 9.83938,16.916505 C 181.448,104.861 170.879,87.444875 170.879,70.52775 z m 35.76262,-20.662875 c -0.20725,-0.01762 -1.03675,-1.13025 -0.22862,-1.255 2.07612,-0.317875 4.156,0.56475 5.12937,1.299375 0.18275,0.137125 0.0906,0.5825 -0.0425,0.556625 -1.0475,-0.214375 -4.56625,-0.577625 -4.85825,-0.601"
         id="path2937" /></clipPath><clipPath
       id="clipPath3686"><path
         d="m 165.35732,47.644248 7.28101,0.763204 -0.17545,2.223453 -7.28101,-0.763203 0.17545,-2.223454 z"
         id="path3688"
         style="fill:#fffb17;fill-opacity:0.66523605;stroke:none" /></clipPath></defs><path
     d="m 87.389375,232.19798 0,0 -0.54827,2.07901 -0.44357,2.31321 -0.34989,2.55071 -0.25457,2.76615 -0.1576,2.9772 -0.0766,3.1739 0.0198,3.34252 0.1173,3.52989 0.20005,3.67259 0.29204,3.82193 0.3907,3.94258 0.4827,4.0517 0.56701,4.14978 0.66674,4.22692 0.75931,4.29084 0.8541,4.33438 0.94831,4.37184 1.0431,4.39223 1.13897,4.39058 1.24146,4.38782 1.33734,4.35476 1.43542,4.30132 1.53076,4.25833 1.630485,4.17347 1.73408,4.08752 1.84153,3.98773 1.93796,3.85667 2.0399,3.73156 2.15396,3.57835 2.25701,3.4158 2.37107,3.22849 2.48071,3.03337 2.94249,-2.54575 -2.34297,-2.86806 -2.24874,-3.07525 -2.16333,-3.26323 -2.06359,-3.44061 -1.97763,-3.59434 -1.87901,-3.75027 -1.77871,-3.86599 -1.69055,-3.9812 -1.59907,-4.07977 -1.49935,-4.15199 -1.404575,-4.22637 -1.30868,-4.2644 -1.2106,-4.2936 -1.123,-4.31563 -1.02766,-4.31454 -0.9329,-4.29691 -0.83865,-4.2721 -0.74664,-4.21535 -0.65132,-4.15198 -0.56701,-4.07209 -0.46671,-3.97675 -0.37527,-3.86435 -0.29204,-3.73155 -0.20005,-3.5971 -0.10134,-3.42353 -0.0202,-3.26482 0.0612,-3.05214 0.1576,-2.83945 0.23914,-2.61295 0.3185,-2.35399 0.40004,-2.08508 0.47003,-1.78864 0,0"
     id="path509"
     style="fill:#000000;fill-opacity:1;fill-rule:nonzero;stroke:none" /><path
     d="m 132.50355,180.05987 0,0 -2.46145,1.19131 -2.37104,1.17975 -2.2763,1.19298 -2.18206,1.18856 -2.10216,1.20289 -2.01345,1.2106 -1.9319,1.22272 -1.85917,1.24532 -1.78036,1.26186 -1.70709,1.28389 -1.63544,1.31364 -1.56657,1.34782 -1.50926,1.38087 -1.43983,1.41228 -1.37757,1.44755 -1.323,1.49328 -1.27013,1.53846 -1.2106,1.58254 -1.163215,1.62885 -1.12024,1.68228 -1.07009,1.73572 -1.03208,1.7947 -0.99515,1.85366 -0.95603,1.90875 -0.92793,1.97598 -0.88991,2.03825 -0.87007,2.11043 -0.84803,2.18812 -0.83094,2.26527 -0.80946,2.33194 -0.79679,2.42232 -0.78686,2.50552 3.72052,1.14337 0.77476,-2.45867 0.78079,-2.36335 0.79349,-2.28512 0.80008,-2.18977 0.81662,-2.10989 0.83867,-2.03549 0.86235,-1.96 0.8811,-1.88561 0.90919,-1.81783 0.93563,-1.74786 0.969815,-1.68559 1.01059,-1.62938 1.04199,-1.57594 1.08828,-1.52248 1.13566,-1.47619 1.17644,-1.42937 1.23209,-1.38694 1.2872,-1.35717 1.34616,-1.32136 1.40292,-1.2872 1.47619,-1.25745 1.54453,-1.2387 1.6134,-1.22162 1.69,-1.20234 1.76825,-1.18251 1.8542,-1.17644 1.93851,-1.16653 2.02392,-1.15605 2.12309,-1.15715 2.21293,-1.15 2.3121,-1.16321 2.41459,-1.16101 0,0"
     id="path511"
     style="fill:#000000;fill-opacity:1;fill-rule:nonzero;stroke:none" /><path
     d="m 166.05277,166.066 0,0 -0.76535,0.52457 -0.80287,0.50915 -0.84637,0.50805 -0.87777,0.49483 -0.91528,0.48269 -0.94337,0.46893 -0.97803,0.46396 -1.00125,0.46231 -1.02324,0.44468 -1.05082,0.44248 -1.06678,0.43421 -1.09046,0.42486 -1.10426,0.41987 -1.11695,0.41275 -1.13072,0.41547 -1.13069,0.40278 -1.14997,0.40776 -1.14614,0.40445 -1.15274,0.40115 -1.15275,0.40167 -1.14833,0.40006 -1.14945,0.39951 -1.14173,0.40172 -1.13238,0.41216 -1.11858,0.40445 -1.1103,0.41715 -1.09654,0.4221 -1.08552,0.42596 -1.06407,0.43147 -1.03865,0.44523 -1.0227,0.44468 -0.99516,0.46286 1.66189,3.52327 0.93565,-0.43091 0.96042,-0.42923 0.99516,-0.41714 1.01667,-0.41548 1.03866,-0.41106 1.06568,-0.40609 1.08222,-0.40114 1.10262,-0.40446 1.11691,-0.39674 1.12629,-0.40172 1.13401,-0.40004 1.14781,-0.39952 1.15274,-0.40167 1.15274,-0.40115 1.16211,-0.40445 1.14945,-0.40776 1.16211,-0.41878 1.14668,-0.41547 1.14502,-0.42818 1.1357,-0.43583 1.12131,-0.44025 1.11364,-0.44965 1.09487,-0.4579 1.08553,-0.47333 1.06074,-0.47773 1.04034,-0.49537 1.0183,-0.51522 0.99348,-0.52623 0.96817,-0.54221 0.93728,-0.55433 0.90918,-0.58464 0.87451,-0.59951 0,0"
     id="path513"
     style="fill:#000000;fill-opacity:1;fill-rule:nonzero;stroke:none" /><path
     d="m 166.12939,143.65191 0,0 0.73727,0.70421 0.68715,0.70916 0.6342,0.72625 0.57801,0.7439 0.52017,0.74167 0.46234,0.75437 0.4157,0.76536 0.36543,0.76704 0.31915,0.77308 0.26582,0.77144 0.21821,0.77639 0.17368,0.77641 0.12959,0.76978 0.0767,0.77639 0.0353,0.76373 -0.009,0.76702 -0.0441,0.76097 -0.0939,0.74334 -0.1419,0.74057 -0.17456,0.7213 -0.22395,0.71578 -0.25875,0.70587 -0.29976,0.68106 -0.33766,0.67006 -0.38264,0.64965 -0.42054,0.63259 -0.45458,0.60943 -0.4965,0.59015 -0.53282,0.57031 -0.56535,0.5389 -0.60723,0.5075 -0.64858,0.49041 2.25868,3.17392 0.81385,-0.6122 0.77641,-0.66068 0.73396,-0.69209 0.68601,-0.72295 0.63369,-0.7593 0.59237,-0.79017 0.54164,-0.81718 0.48931,-0.84637 0.44359,-0.87007 0.39013,-0.89378 0.33768,-0.90589 0.28255,-0.92792 0.23761,-0.94941 0.16971,-0.95605 0.12521,-0.97144 0.075,-0.97312 0.009,-0.98248 -0.0485,-0.99184 -0.10749,-0.98854 -0.15781,-0.99847 -0.22042,-0.99185 -0.2808,-0.98853 -0.34031,-0.98413 -0.3941,-0.97312 -0.45898,-0.96375 -0.52184,-0.94942 -0.58409,-0.93894 -0.64193,-0.92298 -0.6998,-0.89651 -0.75601,-0.87944 -0.8249,-0.86235 -0.88989,-0.82599 0,0"
     id="path515"
     style="fill:#000000;fill-opacity:1;fill-rule:nonzero;stroke:none" /><path
     d="m 130.64497,142.4694 0.0132,-0.006 1.45911,-0.378 1.43214,-0.36259 1.40235,-0.35763 1.38858,-0.34384 1.36213,-0.3229 1.34178,-0.31245 1.31694,-0.28764 1.29325,-0.2656 1.26846,-0.25126 1.2481,-0.22209 1.22879,-0.19505 1.19514,-0.17356 1.18419,-0.13722 1.14944,-0.10631 1.12903,-0.0794 1.10426,-0.0384 1.09543,-0.006 1.06185,0.0221 1.0343,0.0706 1.01993,0.10573 0.99185,0.14043 0.96817,0.18903 0.95108,0.22812 0.93286,0.27058 0.91801,0.32011 0.89214,0.36866 0.88273,0.41381 0.86843,0.47167 0.85131,0.51412 0.84307,0.58408 0.82821,0.63698 0.82596,0.6954 2.59314,-2.89895 -0.96372,-0.8326 -0.99683,-0.75932 -1.0089,-0.69043 -1.0354,-0.63534 -1.04969,-0.56259 -1.06678,-0.5075 -1.09215,-0.44358 -1.09932,-0.38294 -1.1169,-0.32951 -1.13239,-0.27494 -1.15274,-0.2171 -1.16046,-0.17192 -1.16981,-0.12184 -1.18748,-0.07 -1.19957,-0.0384 -1.20122,0.006 -1.22607,0.0551 -1.23871,0.0798 -1.25576,0.12183 -1.25854,0.15319 -1.28887,0.17302 -1.28883,0.21107 -1.31035,0.23417 -1.32744,0.25178 -1.34062,0.28104 -1.35994,0.30307 -1.37316,0.31244 -1.39356,0.3389 -1.40402,0.34384 -1.43377,0.35765 -1.44809,0.378 -1.45858,0.37801 0.0154,-0.0117"
     id="path517"
     style="fill:#000000;fill-opacity:1;fill-rule:nonzero;stroke:none" /><path
     d="m 130.0201,142.79726 0,-0.006 -0.0132,0.0844 -0.0132,0.0496 -0.0221,0.0496 -0.0176,0.0278 -0.0132,0 -0.001,0.006 0.004,-0.006 0.004,0 0.0176,-0.0162 0.0353,-0.0388 0,-0.006 0.0309,-0.0274 0.0353,-0.0441 0.0353,-0.0384 0.0441,-0.0331 0.0265,-0.0278 0.0467,-0.0221 0.0467,-0.0441 0.0485,-0.0331 0.0397,-0.0274 0.0502,-0.0384 0.0485,-0.0221 0.0353,-0.0167 0.0397,-0.0384 0.0397,-0.0117 0.0221,-0.0221 0.0309,-0.004 0.0221,-0.0162 0.0132,0.001 0.001,0.004 0.009,0.001 -0.0265,-0.0117 -0.9467,-3.78335 -0.15646,0.0278 -0.12945,0.0441 -0.13883,0.0551 -0.13443,0.0612 -0.12945,0.0496 -0.12184,0.0672 -0.13004,0.0551 -0.1151,0.0716 -0.11905,0.0551 -0.12506,0.0778 -0.11071,0.0816 -0.1091,0.0672 -0.11744,0.0844 -0.10749,0.0794 -0.10968,0.075 -0.10631,0.0969 -0.12008,0.0921 -0.1031,0.0937 -0.10807,0.0876 -0.0997,0.0893 -0.1047,0.1031 -0.12506,0.12784 -0.081,0.10031 -0.0969,0.12008 -0.0969,0.13721 -0.0948,0.13004 -0.0893,0.14498 -0.0953,0.1378 -0.0893,0.16694 -0.0826,0.1813 -0.0622,0.18241 -0.0518,0.21873 0,-0.006"
     id="path519"
     style="fill:#000000;fill-opacity:1;fill-rule:nonzero;stroke:none" /><path
     d="m 128.73454,150.77612 2.50827,-2.51653 -0.18251,-0.47499 -0.17014,-0.46506 -0.0842,-0.2171 -0.0767,-0.2221 -0.0798,-0.21874 -0.0715,-0.20938 -0.0671,-0.2 -0.0715,-0.21212 -0.0643,-0.19396 -0.0577,-0.19175 -0.0546,-0.19068 -0.0511,-0.18734 -0.0467,-0.17963 -0.0441,-0.16694 -0.0309,-0.16751 -0.0353,-0.17192 -0.0309,-0.16201 -0.0309,-0.15318 -0.0176,-0.14219 -0.0221,-0.14988 -0.001,-0.13282 -0.009,-0.1378 -0.004,-0.1356 0.001,-0.12067 0.009,-0.11685 -0.001,-0.12345 0.0221,-0.11569 0.009,-0.1047 0.0221,-0.0953 0.0265,-0.10309 -3.78338,-0.96209 -0.0578,0.25621 -0.0479,0.26393 -0.0423,0.25788 -0.0202,0.25294 -0.0296,0.24518 -0.007,0.25457 -0.001,0.25788 0.007,0.24192 0.009,0.24356 0.0326,0.25457 0.0221,0.24077 0.0344,0.25128 0.0331,0.24356 0.0453,0.23746 0.0485,0.23474 0.0606,0.24192 0.0594,0.24519 0.0622,0.23915 0.0672,0.2342 0.0706,0.23417 0.0734,0.23915 0.0766,0.24024 0.0716,0.22813 0.0832,0.24354 0.087,0.24082 0.0798,0.23421 0.0921,0.23747 0.0844,0.24854 0.18624,0.47774 0.18241,0.49041 2.50885,-2.51599 -2.50885,2.51599 0.0937,0.21711 0.10968,0.19506 0.12345,0.17356 0.13443,0.1515 0.14322,0.13282 0.15486,0.11247 0.16253,0.0937 0.16861,0.0734 0.17356,0.0562 0.17795,0.0384 0.17964,0.0221 0.18242,0.004 0.18131,-0.0117 0.17963,-0.0278 0.17809,-0.0441 0.17369,-0.0573 0.16883,-0.0722 0.16089,-0.086 0.15341,-0.0981 0.14366,-0.11247 0.13267,-0.12345 0.11994,-0.13604 0.10763,-0.14657 0.0925,-0.15812 0.0767,-0.16699 0.059,-0.17795 0.0397,-0.18567 0.0221,-0.19564 -0.001,-0.20278 -0.0221,-0.2127 -0.048,-0.2171 -0.0741,-0.22483"
     id="path521"
     style="fill:#000000;fill-opacity:1;fill-rule:nonzero;stroke:none" /><path
     d="m 103.5306,131.75745 0,0 0.23913,0.68107 0.30143,0.67336 0.35597,0.66177 0.40006,0.65463 0.45734,0.65461 0.49868,0.64194 0.53725,0.64967 0.58079,0.65131 0.61384,0.64855 0.65792,0.6447 0.69319,0.64196 0.73287,0.64359 0.75601,0.64525 0.79954,0.637 0.81993,0.63423 0.85132,0.63257 0.86843,0.62982 0.90313,0.62156 0.91525,0.61054 0.94611,0.60172 0.96375,0.59786 0.97641,0.58409 0.99791,0.57031 1.00122,0.55158 1.02326,0.54497 1.02326,0.52788 1.04033,0.51411 1.04474,0.49482 1.04805,0.47664 1.05136,0.44799 1.04971,0.43583 1.05577,0.41274 1.37149,-3.64559 -0.97806,-0.38131 -0.99019,-0.40445 -0.98855,-0.43584 -0.98908,-0.44523 -0.98249,-0.46396 -0.97751,-0.4827 -0.97918,-0.49978 -0.96099,-0.51412 -0.95713,-0.53558 -0.93564,-0.53891 -0.92962,-0.55271 -0.90423,-0.55487 -0.88439,-0.56977 -0.87118,-0.57968 -0.84031,-0.57802 -0.82488,-0.58244 -0.78907,-0.58574 -0.76042,-0.59015 -0.72184,-0.5907 -0.69651,-0.58244 -0.65461,-0.58408 -0.61825,-0.57968 -0.57968,-0.57031 -0.53891,-0.55764 -0.49041,-0.54167 -0.44358,-0.52788 -0.3918,-0.52017 -0.33612,-0.48931 -0.29373,-0.47002 -0.23416,-0.43421 -0.17963,-0.39842 -0.13282,-0.35926 0,0"
     id="path523"
     style="fill:#000000;fill-opacity:1;fill-rule:nonzero;stroke:none" /><path
     d="m 143.6949,100.20239 1.96056,-2.317623 -2.44163,-0.0278 -2.42122,0.0766 -2.37215,0.15486 -2.33524,0.24519 -2.28843,0.33449 -2.23828,0.4105 -2.17763,0.48765 -2.12584,0.560403 -2.06471,0.64709 -2.00408,0.70917 -1.93024,0.78411 -1.86523,0.85409 -1.78201,0.92463 -1.70875,0.98578 -1.62607,1.04805 -1.54012,1.11198 -1.44809,1.17314 -1.35443,1.23263 -1.25689,1.29327 -1.15605,1.34175 -1.04805,1.39795 -0.93564,1.45691 -0.81552,1.50265 -0.69043,1.54838 -0.56371,1.59633 -0.43589,1.63655 -0.28265,1.67456 -0.14658,1.70268 10e-4,1.71975 0.15481,1.74895 0.30306,1.76549 0.47168,1.77266 3.72054,-1.12795 -0.37801,-1.46959 -0.25899,-1.44314 -0.12345,-1.41503 -10e-4,-1.39795 0.11568,-1.36876 0.23856,-1.33679 0.34223,-1.3186 0.4579,-1.28996 0.56811,-1.27287 0.67832,-1.24367 0.78245,-1.21335 0.8822,-1.18582 0.98744,-1.15715 1.08884,-1.11197 1.18855,-1.07946 1.27893,-1.03539 1.3715,-0.99073 1.45747,-0.94171 1.54342,-0.89156 1.62883,-0.83425 1.69662,-0.7797 1.77705,-0.7213 1.83878,-0.66233 1.91151,-0.5874 1.9732,-0.52953 2.03991,-0.45625 2.08508,-0.38241 2.13524,-0.30307 2.1848,-0.2298 2.23554,-0.15429 2.26802,-0.0612 2.31925,0.011 1.96055,-2.318163 -1.96055,2.318163 0.23584,-0.005 0.22042,-0.0278 0.20762,-0.0496 0.19087,-0.0672 0.17633,-0.0827 0.16266,-0.10028 0.14629,-0.11572 0.13268,-0.12784 0.11729,-0.13885 0.10134,-0.14988 0.0877,-0.1598 0.0732,-0.16531 0.0559,-0.17192 0.0441,-0.17796 0.0265,-0.17962 0.0132,-0.182943 -0.003,-0.18074 -0.0177,-0.18131 -0.0353,-0.17963 -0.0485,-0.17356 -0.0643,-0.17024 -0.0811,-0.16257 -0.0934,-0.15429 -0.11071,-0.14547 -0.12696,-0.13282 -0.1419,-0.12175 -0.15605,-0.108 -0.17369,-0.092 -0.18736,-0.0749 -0.20453,-0.0562 -0.21865,-0.0388 -0.23584,-0.0163"
     id="path525"
     style="fill:#000000;fill-opacity:1;fill-rule:nonzero;stroke:none" /><path
     d="m 161.18725,76.938607 0,0 -1.72581,-0.0887 -1.62117,-0.0441 -1.51973,0.0168 -1.44479,0.0749 -1.35275,0.1262 -1.27013,0.18457 -1.19354,0.24025 -1.12131,0.30804 -1.05245,0.36201 -0.97643,0.43584 -0.89817,0.50474 -0.83703,0.57912 -0.74829,0.64085 -0.67005,0.70917 -0.58739,0.77144 -0.49204,0.82598 -0.41217,0.86236 -0.33282,0.90313 -0.25435,0.93069 -0.18295,0.9687 -0.12608,0.99626 -0.0706,1.01664 -0.0265,1.04695 0.0309,1.08056 0.064,1.11363 0.10616,1.14172 0.14234,1.17479 0.16178,1.20895 0.20014,1.24202 0.21556,1.28223 0.2451,1.30428 0.25787,1.344513 3.83018,-0.746643 -0.25788,-1.3131 -0.23276,-1.27618 -0.21601,-1.21997 -0.18426,-1.1825 -0.16265,-1.13071 -0.1261,-1.08442 -0.0908,-1.03537 -0.0639,-0.97642 -0.0176,-0.92738 0.009,-0.87779 0.0551,-0.82047 0.0952,-0.75271 0.13882,-0.69374 0.17633,-0.64029 0.21116,-0.58078 0.24685,-0.52789 0.29227,-0.47663 0.32798,-0.43421 0.37954,-0.40609 0.44523,-0.38131 0.49976,-0.34825 0.59511,-0.3229 0.67005,-0.29865 0.76208,-0.27164 0.86234,-0.2298 0.9654,-0.19669 1.06956,-0.15319 1.17149,-0.11073 1.27617,-0.0595 1.39794,-0.0168 1.49989,0.0278 1.60406,0.0887 0,0"
     id="path527"
     style="fill:#000000;fill-opacity:1;fill-rule:nonzero;stroke:none" /><path
     d="m 233.06255,94.765407 -0.009,0 -2.45375,-0.64966 -2.41181,-0.65131 -2.36779,-0.67005 -2.32423,-0.6717 -2.2961,-0.68438 -2.25868,-0.68106 -2.21954,-0.69044 -2.19912,-0.69319 -2.18043,-0.69044 -2.15893,-0.68272 -2.14129,-0.68548 -2.12417,-0.67776 -2.11211,-0.67831 -2.11154,-0.66068 -2.10544,-0.64966 -2.11044,-0.64525 -2.1099,-0.62156 -2.11484,-0.61385 -2.12476,-0.58739 -2.13961,-0.57472 -2.15561,-0.55433 -2.17272,-0.52954 -2.19141,-0.50474 -2.22562,-0.46837 -2.25092,-0.44854 -2.28015,-0.41657 -2.31652,-0.37801 -2.35234,-0.35155 -2.40081,-0.31572 -2.43332,-0.27 -2.49007,-0.23915 -2.53362,-0.19065 -0.25877,3.88914 2.47081,0.19066 2.41512,0.22372 2.37382,0.27 2.3226,0.29976 2.29337,0.33612 2.2537,0.37801 2.22116,0.40445 2.18816,0.43258 2.16333,0.46892 2.14789,0.48876 2.12586,0.51356 2.10876,0.5389 2.09611,0.55929 2.09279,0.5874 2.08345,0.59841 2.08231,0.62156 2.07904,0.62927 2.09002,0.64966 2.09611,0.66068 2.11153,0.66564 2.12419,0.67776 2.14186,0.68603 2.15834,0.69485 2.18044,0.69043 2.21512,0.69374 2.25097,0.68989 2.27406,0.69705 2.30828,0.68382 2.35561,0.68768 2.39917,0.67005 2.44272,0.66674 2.49779,0.64966 -0.009,0"
     id="path529"
     style="fill:#000000;fill-opacity:1;fill-rule:nonzero;stroke:none" /><path
     d="m 245.74884,97.235107 0.009,0 0.16354,-0.12179 0.0441,-0.0278 -0.0577,0.022 -0.14812,0.0278 -0.23231,0.022 -0.2936,0.005 -0.36279,-0.003 -0.39187,-0.011 -0.43598,-0.0384 -0.46564,-0.0441 -0.49372,-0.0639 -0.51079,-0.07 -0.53228,-0.0816 -0.5516,-0.0998 -0.567,-0.10139 -0.56371,-0.10638 -0.57196,-0.12175 -0.56976,-0.1251 -0.56699,-0.12179 -0.55601,-0.13278 -0.55486,-0.13113 -0.52955,-0.12511 -0.52127,-0.13113 -0.50805,-0.12785 -0.47609,-0.12343 -0.45017,-0.11131 -0.41965,-0.1124 -0.39366,-0.10307 -0.67172,-0.17963 -0.50805,-0.13115 -0.97751,3.76736 0.49481,0.13115 0.67168,0.17964 0.39409,0.10306 0.43245,0.11241 0.46564,0.12674 0.49209,0.12344 0.50747,0.12784 0.53727,0.13172 0.56095,0.14049 0.56972,0.13114 0.58739,0.13278 0.59511,0.137233 0.60119,0.12504 0.60335,0.1218 0.61054,0.12179 0.5951,0.11403 0.59843,0.10028 0.59179,0.0965 0.58908,0.086 0.56808,0.0639 0.55931,0.0611 0.54222,0.0331 0.52951,0.0278 0.4998,0.003 0.50584,-0.022 0.49205,-0.0496 0.49813,-0.0876 0.50142,-0.14217 0.51854,-0.23252 0.53613,-0.38131 0.004,0"
     id="path531"
     style="fill:#000000;fill-opacity:1;fill-rule:nonzero;stroke:none" /><path
     d="m 252.37493,88.653427 -3.65169,-0.1747 -0.16266,0.38735 -0.15826,0.39343 -0.14497,0.37968 -0.14234,0.39842 -0.13619,0.39343 -0.13267,0.37633 -0.12169,0.39343 -0.12345,0.378 -0.12345,0.38462 -0.11071,0.37302 -0.10924,0.37029 -0.10632,0.36535 -0.20586,0.70146 -0.20013,0.67611 -0.0969,0.3207 -0.0886,0.30139 -0.0952,0.29204 -0.0895,0.28102 -0.0952,0.26392 -0.0781,0.25017 -0.0794,0.22319 -0.0877,0.21543 -0.0715,0.18567 -0.075,0.15649 -0.0671,0.13115 -0.0551,0.10633 -0.0397,0.0656 -0.0265,0.0383 -0.004,-0.001 0.0551,-0.0496 2.59313,2.914383 0.26713,-0.258983 0.20278,-0.25789 0.17986,-0.25294 0.16266,-0.26559 0.14366,-0.25956 0.1296,-0.26837 0.11861,-0.27825 0.11906,-0.27661 0.10309,-0.27772 0.11071,-0.29865 0.10983,-0.29646 0.0952,-0.308 0.10134,-0.31245 0.0952,-0.3229 0.105,-0.33282 0.0965,-0.33282 0.20014,-0.67611 0.20631,-0.70146 0.10631,-0.35323 0.10968,-0.35429 0.11071,-0.35764 0.10749,-0.35323 0.11115,-0.36257 0.12169,-0.34662 0.11686,-0.36368 0.12081,-0.34714 0.12608,-0.3356 0.13004,-0.35155 0.12608,-0.33115 0.13092,-0.32784 -3.65167,-0.17522 3.65167,0.17522 0.0816,-0.22208 0.0551,-0.21548 0.0309,-0.20939 0.009,-0.20114 -0.0176,-0.1956 -0.0309,-0.18735 -0.0551,-0.17795 -0.0701,-0.17029 -0.0877,-0.1609 -0.10134,-0.14988 -0.11598,-0.13886 -0.12828,-0.12841 -0.13882,-0.11572 -0.14987,-0.10416 -0.1565,-0.0909 -0.1653,-0.0782 -0.17016,-0.0622 -0.17457,-0.0496 -0.1794,-0.0331 -0.17986,-0.0168 -0.18119,-0.003 -0.18117,0.0163 -0.17809,0.0331 -0.17545,0.0496 -0.17148,0.0689 -0.16442,0.0854 -0.15782,0.108 -0.14856,0.12674 -0.13882,0.14658 -0.12784,0.16861 -0.11598,0.19066 -0.10134,0.21269"
     id="path533"
     style="fill:#000000;fill-opacity:1;fill-rule:nonzero;stroke:none" /><path
     d="m 253.43399,105.73027 0,-0.005 0.20014,-0.53119 0.17985,-0.53725 0.15429,-0.54331 0.12828,-0.55158 0.10925,-0.54827 0.086,-0.55599 0.0706,-0.55929 0.0551,-0.55764 0.0397,-0.55268 0.0176,-0.56425 0.001,-0.544953 -0.009,-0.56205 -0.0309,-0.55598 -0.0353,-0.5593 -0.0551,-0.55157 -0.0564,-0.55158 -0.0754,-0.55268 -0.0842,-0.54331 -0.0842,-0.54386 -0.0996,-0.54056 -0.10793,-0.54001 -0.10763,-0.52953 -0.12082,-0.52678 -0.12609,-0.52293 -0.1252,-0.52017 -0.13619,-0.50639 -0.13136,-0.50254 -0.14234,-0.49868 -0.14497,-0.49041 -0.13883,-0.4838 -0.13926,-0.47058 -0.14812,-0.47002 -3.72053,1.15881 0.13268,0.43919 0.13882,0.45459 0.13883,0.45625 0.13003,0.45901 0.1261,0.46672 0.13134,0.47223 0.12083,0.47774 0.12432,0.47333 0.11115,0.47608 0.10441,0.4827 0.10764,0.4827 0.0921,0.47829 0.0877,0.48105 0.0842,0.48105 0.0688,0.4838 0.0595,0.47498 0.0559,0.47664 0.0397,0.47609 0.0353,0.46561 0.0176,0.46562 0.009,0.45625 -0.001,0.466723 -0.0176,0.44191 -0.0221,0.44689 -0.0397,0.43588 -0.0551,0.42151 -0.0702,0.41878 -0.0811,0.41054 -0.0969,0.39841 -0.10807,0.39397 -0.12037,0.38408 -0.13751,0.37801 0,-0.005"
     id="path535"
     style="fill:#000000;fill-opacity:1;fill-rule:nonzero;stroke:none" /><path
     d="m 211.69375,105.70382 -1.83109,0.82324 0.61384,0.0843 0.78136,0.11569 0.9197,0.15429 1.04967,0.17962 1.16986,0.20168 1.27177,0.21873 1.36985,0.23422 1.44478,0.24356 1.52304,0.25016 1.593,0.25294 1.63545,0.25788 1.68503,0.24686 1.71537,0.23695 1.74455,0.2331 1.74618,0.20775 1.76386,0.18736 1.74786,0.17192 1.73189,0.1356 1.71369,0.10368 1.67895,0.076 1.62937,0.0278 1.57594,-0.0163 1.5225,-0.0688 1.45749,-0.12183 1.38854,-0.18242 1.31202,-0.2485 1.22495,-0.33449 1.14776,-0.42487 1.05577,-0.55433 0.9527,-0.69815 0.81111,-0.89045 0.59348,-1.07781 -3.61474,-1.4492 -0.13706,0.24025 -0.24511,0.26229 -0.4029,0.30196 -0.58463,0.29482 -0.75106,0.28764 -0.91854,0.24355 -1.05247,0.20441 -1.17646,0.15151 -1.2883,0.10637 -1.3858,0.0551 -1.46962,0.0168 -1.53846,-0.0278 -1.58859,-0.0611 -1.63545,-0.10307 -1.6729,-0.13556 -1.70106,-0.15649 -1.70099,-0.18735 -1.7181,-0.20776 -1.69772,-0.2171 -1.68395,-0.23747 -1.65418,-0.24686 -1.62275,-0.24192 -1.56219,-0.25295 -1.50703,-0.25016 -1.44478,-0.24356 -1.35442,-0.23416 -1.27125,-0.21878 -1.1698,-0.20168 -1.06516,-0.17963 -0.9516,-0.15429 -0.82434,-0.13167 -0.70809,-0.0998 -1.83051,0.82323 1.83051,-0.82323 -0.23584,-0.0163 -0.22304,0.005 -0.21117,0.0278 -0.19659,0.0496 -0.1856,0.0656 -0.17015,0.0843 -0.15913,0.10029 -0.14366,0.11403 -0.13136,0.12784 -0.11598,0.14049 -0.10309,0.14988 -0.0895,0.15813 -0.0732,0.16693 -0.059,0.17192 -0.0458,0.17801 -0.0309,0.17963 -0.0132,0.18294 0,0.18241 0.0176,0.18131 0.0309,0.17964 0.0485,0.17522 0.0639,0.16972 0.0794,0.16421 0.0952,0.15486 0.11423,0.14657 0.12828,0.13445 0.14679,0.12343 0.16442,0.108 0.17942,0.0937 0.19836,0.0777 0.21556,0.0595 0.23275,0.0383"
     id="path537"
     style="fill:#000000;fill-opacity:1;fill-rule:nonzero;stroke:none" /><path
     d="m 211.48105,108.47934 0.0177,0.006 0.0969,0.0274 0.0816,0.0384 0.0559,0.0331 0.0309,0.022 0.0132,0.0167 -0.009,-0.004 -0.0176,-0.0278 -0.0265,-0.0497 -0.0353,-0.0578 -0.0353,-0.0904 -0.0397,-0.0844 -0.0353,-0.1113 -0.0397,-0.1151 -0.0309,-0.13941 -0.0309,-0.12784 -0.0221,-0.14219 -0.0221,-0.15318 -0.004,-0.14988 -0.0132,-0.15759 -0.004,-0.15151 0.003,-0.15922 0.0132,-0.14988 0.0132,-0.15041 0.0132,-0.13225 0.0265,-0.13445 0.0265,-0.13113 0.0265,-0.11131 0.0397,-0.10302 0.0309,-0.0904 0.0441,-0.0816 0.0353,-0.0639 0.0265,-0.0551 -3.18987,-2.22725 -0.19176,0.28266 -0.15958,0.29535 -0.13575,0.29372 -0.12344,0.30306 -0.0987,0.30254 -0.0886,0.308 -0.0723,0.29976 -0.0546,0.30306 -0.045,0.31409 -0.0265,0.30306 -0.0132,0.30306 -0.003,0.29646 0.004,0.30469 0.0132,0.29536 0.0353,0.29976 0.0397,0.2904 0.0515,0.29535 0.0621,0.29698 0.0785,0.27605 0.0824,0.28433 0.10046,0.27661 0.11422,0.28433 0.1296,0.25899 0.14234,0.27053 0.1653,0.26065 0.18735,0.25458 0.20762,0.25179 0.24511,0.24356 0.27507,0.21988 0.3099,0.19726 0.34647,0.17135 0.37471,0.12506 0.0176,0.006"
     id="path539"
     style="fill:#000000;fill-opacity:1;fill-rule:nonzero;stroke:none" /><path
     d="m 251.20344,138.07718 0,0 -0.486,-0.78411 -0.54663,-0.82655 -0.61547,-0.85409 -0.66511,-0.89652 -0.73119,-0.93289 -0.78576,-0.96043 -0.84144,-0.98689 -0.90479,-1.00949 -0.95106,-1.03537 -1.00121,-1.04971 -1.05413,-1.06348 -1.10478,-1.08112 -1.15553,-1.08387 -1.19515,-1.08551 -1.24642,-1.08387 -1.28058,-1.08442 -1.32799,-1.0745 -1.36654,-1.06183 -1.40401,-1.04971 -1.44483,-1.02932 -1.47288,-1.01554 -1.51038,-0.98082 -1.54839,-0.95108 -1.56931,-0.91855 -1.60293,-0.8811 -1.6272,-0.84637 -1.6608,-0.79679 -1.67895,-0.74498 -1.70707,-0.69484 -1.72472,-0.63919 -1.73961,-0.57803 -1.77153,-0.51687 -1.00564,3.76737 1.61781,0.47058 1.61839,0.53395 1.60238,0.59179 1.58528,0.64856 1.57321,0.70146 1.55111,0.74939 1.53684,0.78742 1.51201,0.83426 1.4916,0.87117 1.4575,0.90754 1.43539,0.93399 1.41064,0.95603 1.36985,0.98247 1.34119,1.00288 1.30762,1.01829 1.26514,1.02767 1.23431,1.03758 1.1869,1.03979 1.14778,1.03868 1.09654,1.03758 1.05743,1.0216 1.00781,1.01665 0.95716,1.00286 0.90479,0.97587 0.84469,0.9621 0.79516,0.92792 0.73891,0.89817 0.67171,0.8574 0.61825,0.81883 0.54054,0.77915 0.48438,0.72019 0.41039,0.66234 0,0"
     id="path541"
     style="fill:#000000;fill-opacity:1;fill-rule:nonzero;stroke:none" /><path
     d="m 257.90281,175.04718 0,0 0.21205,-1.07946 0.18734,-1.08057 0.16751,-1.09323 0.14366,-1.1015 0.11246,-1.0993 0.0965,-1.11417 0.0657,-1.11804 0.0441,-1.12629 0.0176,-1.13071 -0.009,-1.12795 -0.0441,-1.14173 -0.063,-1.14668 -0.0969,-1.14944 -0.1151,-1.15717 -0.15165,-1.15935 -0.17809,-1.16322 -0.20675,-1.16873 -0.23583,-1.17314 -0.27157,-1.17422 -0.29534,-1.1792 -0.33105,-1.18415 -0.35443,-1.18417 -0.39057,-1.1869 -0.42318,-1.18415 -0.45462,-1.19298 -0.49483,-1.18581 -0.51738,-1.19793 -0.55874,-1.19187 -0.58462,-1.19352 -0.62434,-1.19297 -0.65132,-1.19518 -0.69371,-1.19627 -3.35523,1.98369 0.64691,1.11858 0.61989,1.11968 0.58135,1.11858 0.55271,1.11528 0.51245,1.11638 0.48874,1.10425 0.44853,1.11088 0.42319,1.1026 0.39189,1.10592 0.3628,1.09654 0.33899,1.09324 0.29975,1.09047 0.27993,1.08884 0.24025,1.08387 0.22041,1.0789 0.19351,1.07781 0.16267,1.0734 0.13619,1.06843 0.11598,1.06349 0.0811,1.05908 0.0622,1.05575 0.0265,1.04805 0.009,1.05302 -0.0176,1.04034 -0.0309,1.03206 -0.0656,1.02823 -0.0811,1.0227 -0.11247,1.0216 -0.12828,1.01058 -0.15165,1.00287 -0.17455,1.00288 -0.19661,0.98853 0,0"
     id="path543"
     style="fill:#000000;fill-opacity:1;fill-rule:nonzero;stroke:none" /><path
     d="m 231.08217,217.67458 0,0 1.72748,-2.27079 1.86357,-2.446 0.96703,-1.27948 0.98691,-1.32137 1.01389,-1.34175 1.01829,-1.37591 1.03704,-1.39961 1.03426,-1.41999 1.04474,-1.42606 1.04364,-1.45415 1.03871,-1.45692 1.0227,-1.46242 1.01553,-1.46518 1.01057,-1.47125 0.98251,-1.46682 0.95711,-1.45856 0.93291,-1.44646 0.90751,-1.43377 0.87284,-1.41999 0.82821,-1.40126 0.79342,-1.38362 0.75607,-1.34506 0.69812,-1.33073 0.65298,-1.29325 0.59783,-1.26957 0.53451,-1.22825 0.47335,-1.19131 0.41216,-1.16211 0.339,-1.12025 0.25788,-1.08551 -3.8142,-0.79348 -0.21115,0.85739 -0.27994,0.93564 -0.34956,0.99682 -0.42627,1.06678 -0.49041,1.12134 -0.55161,1.16377 -0.60613,1.21831 -0.67004,1.2525 -0.70915,1.30152 -0.7621,1.32135 -0.81221,1.35387 -0.84527,1.37647 -0.87614,1.40236 -0.9169,1.41505 -0.94173,1.431 -0.96703,1.43543 -0.97919,1.44039 -1.00283,1.44919 -1.02328,1.44645 -1.0227,1.44148 -1.02822,1.42605 -1.02931,1.42607 -1.03373,1.40457 -1.0216,1.38363 -1.01829,1.36047 -0.99847,1.34174 -0.98691,1.30593 -0.96703,1.27949 -1.84761,2.44601 -1.72744,2.27078 0,0"
     id="path545"
     style="fill:#000000;fill-opacity:1;fill-rule:nonzero;stroke:none" /><path
     d="m 223.43339,251.37864 0,0 -0.90925,-1.04914 -0.79951,-1.02657 -0.70147,-1.00396 -0.60613,-0.97477 -0.51246,-0.95769 -0.42759,-0.93068 -0.34693,-0.91691 -0.2592,-0.89376 -0.1922,-0.89817 -0.1252,-0.87779 -0.0441,-0.8855 0.009,-0.89652 0.0842,-0.89651 0.14234,-0.9092 0.21248,-0.92958 0.27022,-0.94446 0.33106,-0.97036 0.40114,-0.9902 0.46234,-1.00892 0.52016,-1.03869 0.57637,-1.06403 0.62981,-1.08828 0.69156,-1.11693 0.73728,-1.13896 0.79346,-1.1759 0.8392,-1.20124 0.87944,-1.2354 0.92572,-1.2668 0.96377,-1.29492 1.00009,-1.33403 1.04034,-1.37592 1.06184,-1.41227 -3.09566,-2.34903 -1.07781,1.41227 -1.04033,1.37592 -1.01557,1.34946 -0.97916,1.32633 -0.94172,1.29491 -0.91082,1.26681 -0.86679,1.24752 -0.82486,1.22328 -0.78415,1.21336 -0.73559,1.19187 -0.69156,1.1825 -0.63588,1.16983 -0.58298,1.16045 -0.52127,1.16213 -0.46396,1.15605 -0.406,1.1544 -0.33282,1.15716 -0.25965,1.16046 -0.18558,1.16873 -0.0996,1.17148 -0.0265,1.16818 0.075,1.17643 0.15649,1.18361 0.25127,1.17312 0.35001,1.18417 0.44082,1.17589 0.53392,1.17478 0.63426,1.16983 0.72789,1.17148 0.82322,1.17314 0.92132,1.17919 1.01557,1.18692 0,0"
     id="path547"
     style="fill:#000000;fill-opacity:1;fill-rule:nonzero;stroke:none" /><path
     d="m 283.96578,247.8598 0,0 -2.64324,1.04364 -2.63942,0.96815 -2.62126,0.8888 -2.61622,0.81057 -2.59428,0.73286 -2.5755,0.6651 -2.54794,0.58574 -2.52534,0.52346 -2.48235,0.4557 -2.44435,0.38739 -2.40084,0.3218 -2.35345,0.26891 -2.30435,0.19837 -2.24599,0.14825 -2.18815,0.092 -2.12417,0.0278 -2.057,-0.0167 -1.9837,-0.0594 -1.90104,-0.11525 -1.82002,-0.15481 -1.72913,-0.20001 -1.63985,-0.24192 -1.54013,-0.28601 -1.44149,-0.31571 -1.33569,-0.34331 -1.21337,-0.37192 -1.09653,-0.40445 -0.97805,-0.4138 -0.83537,-0.4342 -0.69816,-0.42982 -0.54992,-0.41824 -0.40601,-0.39564 -2.89897,2.60855 0.77145,0.745 0.88714,0.6783 0.98855,0.61385 1.09544,0.55598 1.19021,0.52018 1.29328,0.46672 1.39794,0.43147 1.48833,0.39013 1.57925,0.34715 1.67733,0.29812 1.76217,0.25788 1.85088,0.21544 1.92586,0.17028 2.00684,0.11568 2.0779,0.075 2.14737,0.0163 2.21512,-0.0441 2.27848,-0.0926 2.34023,-0.14826 2.39418,-0.2138 2.44436,-0.26889 2.49452,-0.33722 2.53524,-0.40278 2.57276,-0.46893 2.60359,-0.53891 2.63831,-0.6166 2.66586,-0.68107 2.68848,-0.76371 2.70665,-0.83921 2.72758,-0.91967 2.73031,-0.99957 2.73639,-1.09047 0,0"
     id="path549"
     style="fill:#000000;fill-opacity:1;fill-rule:nonzero;stroke:none" /><path
     d="m 345.68681,157.67497 0,0 -0.0859,3.8941 -0.29977,3.86104 -0.49701,3.83791 -0.6932,3.80648 -0.87833,3.76737 -1.03871,3.72989 -1.21667,3.68031 -1.36487,3.64063 -1.51531,3.57562 -1.65419,3.51885 -1.78533,3.45989 -1.90381,3.3877 -2.00905,3.31775 -2.11757,3.23617 -2.20578,3.15243 -2.28675,3.06755 -2.36942,2.9739 -2.42561,2.88186 -2.48347,2.76946 -2.52867,2.67082 -2.56501,2.55567 -2.58651,2.43938 -2.61024,2.31818 -2.61459,2.19142 -2.61186,2.06029 -2.60364,1.92419 -2.57549,1.79304 -2.54794,1.63874 -2.5022,1.49163 -2.44875,1.33844 -2.38374,1.18582 -2.31159,1.0183 1.48064,3.59874 2.47741,-1.09323 2.53636,-1.24807 2.58651,-1.41338 2.62398,-1.56712 2.65433,-1.71645 2.6846,-1.85256 2.69451,-2.00242 2.70224,-2.13523 2.70554,-2.26967 2.6879,-2.39256 2.67741,-2.51489 2.64273,-2.63335 2.60362,-2.74577 2.55839,-2.86313 2.50386,-2.9568 2.42892,-3.06481 2.36501,-3.16124 2.28014,-3.25822 2.18097,-3.34253 2.08346,-3.42407 1.96659,-3.50949 1.84483,-3.58167 1.71648,-3.65661 1.57425,-3.7288 1.42774,-3.77838 1.26074,-3.84838 1.10096,-3.89575 0.90918,-3.95141 0.72127,-3.99108 0.52789,-4.03461 0.31563,-4.07375 0.10134,-4.09357 0,0"
     id="path551"
     style="fill:#000000;fill-opacity:1;fill-rule:nonzero;stroke:none" /><path
     d="m 200.57073,8.485709 0.0309,0 7.16443,1.089929 7.11154,1.354423 7.0322,1.620018 6.95559,1.874039 6.86138,2.135227 6.75559,2.388148 6.63382,2.641621 6.51202,2.882969 6.37424,3.117707 6.22276,3.361811 6.07289,3.598754 5.89319,3.821918 5.71084,4.055002 5.51688,4.280925 5.31961,4.48921 5.10637,4.71403 4.87933,4.923421 4.64237,5.127851 4.39556,5.335586 4.14041,5.533959 3.87371,5.73398 3.59107,5.92463 3.30836,6.11695 3.0097,6.302633 2.69894,6.48667 2.37271,6.66302 2.04483,6.84153 1.70546,7.01788 1.35606,7.18979 0.98522,7.3584 0.61385,7.52262 0.22349,7.68461 3.90457,-0.0167 -0.23848,-7.88189 -0.62985,-7.72207 -1.01662,-7.55512 -1.38417,-7.38982 -1.75227,-7.21459 -2.10381,-7.04156 -2.45097,-6.86028 -2.77387,-6.670713 -3.08795,-6.48393 -3.3993,-6.28556 -3.69682,-6.09325 -3.98008,-5.88661 -4.25005,-5.684388 -4.51731,-5.472792 -4.76364,-5.265608 -5.00169,-5.045198 -5.22757,-4.823133 -5.44193,-4.610988 -5.65463,-4.371843 -5.84807,-4.145371 -6.03043,-3.916143 -6.19463,-3.673692 -6.36049,-3.4362 -6.51201,-3.195954 -6.64922,-2.94248 -6.78371,-2.688457 -6.89276,-2.434985 -6.99914,-2.178759 -7.09281,-1.921428 -7.18543,-1.650875 -7.24873,-1.382526 -7.31762,-1.105908 0.0309,0 -0.0309,0 -0.23496,-0.01675 -0.22306,0.0034 -0.20939,0.02778 -0.19837,0.04408 -0.18427,0.06449 -0.17191,0.08265 -0.15738,0.09809 -0.14542,0.114032 -0.13091,0.125103 -0.11906,0.138854 -0.10309,0.148778 -0.0886,0.157593 -0.075,0.165308 -0.0612,0.17192 -0.0467,0.175226 -0.0309,0.179635 -0.0132,0.182367 0,0.181311 0.0132,0.181309 0.0309,0.179634 0.045,0.174697 0.0625,0.170246 0.0785,0.164206 0.0934,0.156492 0.11246,0.144945 0.12609,0.136086 0.14541,0.123434 0.16266,0.110737 0.17809,0.09368 0.19661,0.07993 0.2138,0.05894 0.23319,0.04408"
     id="path553"
     style="fill:#000000;fill-opacity:1;fill-rule:nonzero;stroke:none" /><path
     d="m 200.82531,0.232437 0,0 -0.45295,0.01675 -0.44037,0.04959 -0.43422,0.08155 -0.41568,0.116814 -0.3941,0.150408 -0.39013,0.18735 -0.35178,0.218734 -0.33458,0.252943 -0.31077,0.290414 -0.27023,0.30637 -0.23319,0.346619 -0.19,0.363677 -0.14855,0.376901 -0.10309,0.397841 -0.059,0.395637 -0.0265,0.397841 0.0265,0.400046 0.063,0.3907 0.0978,0.376328 0.14725,0.379635 0.17808,0.352657 0.21204,0.342166 0.24069,0.312453 0.27507,0.296981 0.30461,0.281023 0.32444,0.252945 0.35309,0.222041 0.38925,0.191756 0.39366,0.168615 0.40599,0.139439 0.43245,0.115145 0.45457,0.08155 0.56536,-3.858286 -0.17942,-0.03835 -0.1609,-0.03879 -0.14679,-0.0496 -0.11906,-0.0496 -0.0829,-0.0551 -0.0781,-0.05511 -0.0657,-0.03835 -0.045,-0.03835 -0.0309,-0.03835 -0.0265,-0.03879 -0.0132,-0.02204 -0.009,-0.01675 0.003,0.0016 -0.004,-0.01098 -0.003,0.0053 0.004,0.01098 -0.004,0.01675 0,0.01675 -0.003,0.02732 -0.004,0.01675 -0.009,0.02204 -0.0132,0.01675 -0.004,-0.0034 -0.009,0 0.0132,-0.01098 0.0353,-0.01675 0.0353,-0.02204 0.075,-0.02776 0.0939,-0.02733 0.11554,-0.02204 0.14988,-0.01675 0.1781,-0.0034 0,0 0,0 0.23584,-0.01098 0.22217,-0.03307 0.2063,-0.0551 0.19088,-0.07 0.17457,-0.08927 0.15914,-0.10469 0.14541,-0.118498 0.1296,-0.131151 0.11423,-0.142164 0.10045,-0.153185 0.0824,-0.1609 0.0688,-0.168615 0.0546,-0.174696 0.0353,-0.178533 0.0221,-0.180736 0.009,-0.182941 -0.009,-0.182941 -0.0221,-0.18131 -0.0353,-0.177959 -0.0546,-0.174698 -0.0688,-0.168614 -0.0824,-0.160899 -0.10045,-0.153185 -0.11423,-0.142164 -0.1296,-0.131151 -0.14541,-0.119025 -0.15914,-0.10469 -0.17457,-0.08874 -0.19088,-0.07052 -0.2063,-0.05511 -0.22217,-0.03307"
     id="path555"
     style="fill:#000000;fill-opacity:1;fill-rule:nonzero;stroke:none" /><path
     d="m 381.91019,190.90131 0,0 -0.31827,-11.47127 -0.92463,-11.13679 -1.50928,-10.79461 -2.06965,-10.45573 -2.59425,-10.11408 -3.1083,-9.76804 -3.58335,-9.41869 -4.028,-9.0688 -4.46275,-8.716123 -4.85732,-8.36403 -5.22646,-8.00696 -5.56536,-7.64549 -5.88885,-7.291182 -6.18524,-6.927502 -6.4382,-6.570989 -6.68231,-6.202904 -6.88342,-5.835367 -7.07408,-5.474446 -7.23057,-5.109118 -7.36942,-4.737723 -7.46421,-4.364129 -7.54134,-3.993839 -7.60196,-3.626855 -7.62563,-3.246095 -7.624,-2.875255 -7.60526,-2.49119 -7.54907,-2.116493 -7.46917,-1.740141 -7.37106,-1.351116 -7.2427,-0.97146 -7.08509,-0.582986 -6.90546,-0.19947 0,3.904571 6.6933,0.184616 6.88509,0.567006 7.04595,0.940051 7.18649,1.323015 7.30056,1.693303 7.38376,2.069656 7.43608,2.447657 7.47081,2.81299 7.47249,3.186586 7.4493,3.548608 7.4069,3.918899 7.32702,4.285883 7.21623,4.646806 7.09281,5.003319 6.93686,5.368097 6.76167,5.729572 6.54451,6.080575 6.31644,6.433784 6.04807,6.789746 5.76704,7.13855 5.45898,7.4923 5.11684,7.83835 4.75153,8.182733 4.3564,8.53155 3.95307,8.87206 3.50505,9.21867 3.03343,9.5559 2.54794,9.89863 2.02558,10.24304 1.47785,10.58246 0.90862,10.92133 0.30284,11.25857 0,0"
     id="path557"
     style="fill:#000000;fill-opacity:1;fill-rule:nonzero;stroke:none" /><path
     d="m 193.99315,381.7779 0,0 9.24397,-0.24994 9.17349,-0.72463 9.0859,-1.19792 8.98614,-1.64921 8.87042,-2.10271 8.73596,-2.53361 8.59214,-2.96898 8.42355,-3.37061 8.2632,-3.77731 8.05931,-4.1718 7.86644,-4.54817 7.64383,-4.91406 7.41462,-5.27499 7.16335,-5.62597 6.90546,-5.9588 6.63378,-6.2806 6.33847,-6.5886 6.03705,-6.89774 5.72129,-7.19144 5.3841,-7.46916 5.03417,-7.73476 4.68151,-7.99594 4.29193,-8.24062 3.9145,-8.47367 3.49849,-8.70181 3.08185,-8.91396 2.65102,-9.11287 2.20079,-9.30904 1.73187,-9.48592 1.26073,-9.65122 0.76373,-9.80937 0.26406,-9.95099 -3.90515,0 -0.24819,9.75427 -0.74829,9.60934 -1.22931,9.45451 -1.70435,9.2859 -2.15394,9.11233 -2.59092,8.92828 -3.01963,8.7299 -3.43619,8.52052 -3.8236,8.30508 -4.21757,8.07198 -4.57461,7.83008 -4.94051,7.58213 -5.27825,7.31597 -5.59953,7.03826 -5.91529,6.75999 -6.21611,6.46682 -6.4966,6.15884 -6.7677,5.83701 -7.02616,5.50422 -7.26142,5.16862 -7.49118,4.82316 -7.70063,4.45502 -7.90664,4.08144 -8.07806,3.70179 -8.25825,3.30837 -8.40808,2.89403 -8.55193,2.48676 -8.67316,2.05532 -8.78613,1.6217 -8.88916,1.1665 -8.97343,0.70915 -9.04734,0.23408 0,0"
     id="path559"
     style="fill:#000000;fill-opacity:1;fill-rule:nonzero;stroke:none" /><path
     d="m 117.03074,350.97116 0,0 1.66796,1.89774 1.6889,1.83545 1.70212,1.77593 1.72304,1.71647 1.75117,1.6619 1.77707,1.59635 1.80571,1.54177 1.84483,1.48225 1.89001,1.41667 1.92142,1.36213 1.96937,1.30431 2.0179,1.2354 2.07295,1.17642 2.11977,1.11695 2.1848,1.0585 2.24163,0.98912 2.29941,0.93233 2.37215,0.87335 2.44325,0.81221 2.50664,0.74667 2.58541,0.6871 2.66587,0.62928 2.75073,0.56262 2.835,0.50144 2.91934,0.44465 3.013,0.38749 3.11168,0.32091 3.20366,0.26846 3.30947,0.20455 3.41468,0.14541 3.51886,0.0934 3.63456,0.0265 0,-3.90514 -3.57174,-0.0265 -3.45987,-0.0785 -3.3398,-0.14541 -3.23175,-0.20453 -3.12819,-0.25304 -3.01795,-0.32004 -2.92212,-0.37204 -2.82897,-0.4298 -2.72868,-0.48874 -2.64161,-0.54663 -2.56008,-0.59841 -2.47851,-0.65572 -2.4008,-0.7158 -2.32093,-0.76813 -2.25096,-0.82655 -2.19309,-0.88547 -2.11924,-0.94503 -2.06027,-0.99626 -2.01345,-1.05739 -1.9512,-1.11418 -1.9115,-1.1759 -1.86357,-1.22604 -1.8305,-1.2872 -1.78092,-1.35442 -1.75393,-1.40732 -1.73075,-1.46627 -1.69937,-1.53405 -1.67568,-1.58697 -1.66079,-1.65417 -1.64315,-1.71317 -1.62609,-1.77594 -1.62442,-1.83548 0,0"
     id="path561"
     style="fill:#000000;fill-opacity:1;fill-rule:nonzero;stroke:none" /><path
     d="m 181.17298,0.22417 0,0 -6.89339,0.201676 -7.07407,0.585741 -7.23331,0.978072 -7.36339,1.358831 -7.46253,1.746202 -7.54302,2.12586 -7.60028,2.50221 -7.62234,2.885173 -7.624,3.256566 -7.60087,3.637877 -7.540775,4.004858 -7.47247,4.375149 -7.36338,4.748195 -7.23332,5.120135 -7.07572,5.48216 -6.88673,5.843634 -6.6867,6.210068 -6.44922,6.5776 -6.18086,6.930259 -5.89323,7.294481 -5.57032,7.64605 -5.230893,8.00476 -4.860602,8.359623 -4.461109,8.70785 -4.039023,9.05944 -3.586632,9.40491 -3.111093,9.75261 -2.597538,10.09536 -2.071308,10.43037 -1.512017,10.76815 -0.924621,11.10429 -0.318494,11.43656 3.904573,0 0.303064,-11.22386 0.909193,-10.88883 1.480609,-10.55546 2.027775,-10.21879 2.550702,-9.87934 3.036154,-9.54047 3.508385,-9.20434 3.948655,-8.86272 4.370189,-8.52382 4.754811,-8.178333 5.12123,-7.83614 5.46398,-7.49286 5.77145,-7.141301 6.05908,-6.793052 6.31146,-6.439845 6.54951,-6.088841 6.76495,-5.736735 6.93852,-5.376364 7.09556,-5.013788 7.22561,-4.657825 7.319835,-4.296903 7.40634,-3.929919 7.44768,-3.560182 7.47081,-3.197054 7.46916,-2.822357 7.43225,-2.45868 7.37714,-2.079022 7.29396,-1.699366 7.17877,-1.330728 7.03713,-0.946663 6.87408,-0.570312 6.68064,-0.185673 0,0 0,0 0.23584,-0.01098 0.22129,-0.03307 0.2063,-0.0551 0.19088,-0.07 0.175,-0.08927 0.15913,-0.10469 0.14498,-0.118498 0.13004,-0.131151 0.11422,-0.142164 0.0996,-0.153184 0.0824,-0.1609 0.0688,-0.168614 0.0546,-0.175226 0.0353,-0.177961 0.0221,-0.181309 0.004,-0.182368 -0.004,-0.182941 -0.0221,-0.181265 -0.0353,-0.178003 -0.0546,-0.174697 -0.0688,-0.169143 -0.0824,-0.160328 -0.0996,-0.153184 -0.11422,-0.142163 -0.13004,-0.131151 -0.14498,-0.119026 -0.15913,-0.104689 -0.175,-0.08874 -0.19088,-0.07052 -0.2063,-0.0551 -0.22129,-0.03307"
     id="path563"
     style="fill:#000000;fill-opacity:1;fill-rule:nonzero;stroke:none" /><path
     d="m 181.39942,8.474688 0.0609,-0.0057 0.44853,-0.07988 0.42936,-0.107428 0.42186,-0.145473 0.40116,-0.170245 0.37469,-0.192287 0.3456,-0.219881 0.33458,-0.245229 0.31211,-0.279921 0.26713,-0.296452 0.24861,-0.319066 0.21206,-0.341637 0.17851,-0.353186 0.1468,-0.379635 0.0969,-0.390126 0.0608,-0.392331 0.0265,-0.390656 -0.0265,-0.397841 -0.0608,-0.401719 L 185.56575,2.969256 185.41587,2.591251 185.21573,2.228676 184.97989,1.888142 184.7079,1.57463 184.40198,1.293034 184.074,1.038459 183.70372,0.811965 183.318,0.633962 l -0.39674,-0.143803 -0.41701,-0.122863 -0.4298,-0.07383 -0.44523,-0.0562 -0.45568,-0.01098 0,3.905124 0.18073,0.01098 0.15472,0.01098 0.12697,0.02777 0.0952,0.01675 0.0776,0.03307 0.0485,0.02733 0.0221,0.01098 0.0221,0.01098 0.003,0.0053 -0.003,-0.0044 -0.009,-0.01098 -0.0176,-0.01675 -0.003,-0.01675 -0.009,-0.02778 10e-4,-0.02733 -0.004,-0.01675 0.004,-0.0057 -10e-4,-0.0044 -0.003,-0.0057 0.003,-0.0016 -0.009,0.01675 -0.0132,0.02204 -0.0221,0.02778 -0.0397,0.03835 -0.0397,0.03835 -0.0595,0.0496 -0.0859,0.04958 -0.0996,0.0551 -0.11071,0.0496 -0.13443,0.03835 -0.17017,0.04408 -0.18911,0.03835 0.0612,-0.0053 -0.0612,0.0053 -0.23099,0.04408 -0.21424,0.06445 -0.19661,0.08098 -0.17808,0.09866 -0.15914,0.112407 -0.14366,0.126157 -0.12696,0.137756 -0.10763,0.148247 -0.0921,0.157594 -0.0767,0.165882 -0.0594,0.171919 -0.0441,0.176329 -0.0265,0.179634 -0.0132,0.182941 0.003,0.180737 0.0176,0.18294 0.0353,0.179636 0.0498,0.175226 0.063,0.171391 0.0781,0.164205 0.0921,0.156492 0.10631,0.146573 0.12038,0.137184 0.13443,0.125103 0.14679,0.110737 0.15913,0.09535 0.1737,0.07993 0.18558,0.06225 0.20014,0.04408 0.21115,0.02204 0.22172,0 0.23584,-0.02204"
     id="path565"
     style="fill:#000000;fill-opacity:1;fill-rule:nonzero;stroke:none" /><path
     d="m 32.954585,142.80498 0,0 1.40898,-6.94734 1.66079,-6.79471 1.90214,-6.64428 2.1479,-6.48998 2.37878,-6.34342 2.61627,-6.1759 2.84772,-6.013343 3.0692,-5.85631 3.28137,-5.68659 3.51114,-5.51577 3.71777,-5.34 3.92221,-5.159258 4.12663,-4.987339 4.32941,-4.801643 4.52834,-4.618702 4.71568,-4.421986 4.90469,-4.234086 5.08873,-4.043983 5.26395,-3.841204 5.441945,-3.638977 5.62157,-3.430139 5.78192,-3.225709 5.94667,-3.020726 6.10869,-2.801969 6.26351,-2.583762 6.40733,-2.365005 6.5633,-2.139635 6.70709,-1.907102 6.84595,-1.682284 6.98203,-1.443137 7.11322,-1.207299 7.23991,-0.968704 -0.44355,-3.873715 -7.37714,0.984132 -7.24767,1.235401 -7.11926,1.474548 -6.98371,1.713691 -6.84485,1.95394 -6.70047,2.183717 -6.56052,2.41129 -6.40072,2.643274 -6.24644,2.864235 -6.08388,3.080236 -5.91968,3.303403 -5.74335,3.521059 -5.579145,3.729897 -5.4017,3.934327 -5.21052,4.134901 -5.02645,4.340435 -4.83747,4.543763 -4.63413,4.728356 -4.43631,4.92287 -4.23574,5.109667 -4.02855,5.296465 -3.80815,5.477747 -3.58607,5.64968 -3.37559,5.82435 -3.14415,5.99351 -2.90998,6.166523 -2.67523,6.32909 -2.4416,6.48062 -2.19143,6.64317 -1.94953,6.79747 -1.69165,6.94459 -1.43983,7.08509 0,0"
     id="path567"
     style="fill:#000000;fill-opacity:1;fill-rule:nonzero;stroke:none" /><path
     d="m 88.012575,294.56258 -0.68712,-1.15275 -3.92551,-3.29404 -3.79547,-3.41912 -3.68306,-3.54585 -3.55963,-3.66597 -3.43015,-3.77839 -3.30229,-3.90347 -3.17667,-4.00487 -3.04111,-4.1123 -2.90557,-4.2159 -2.77056,-4.31729 -2.62288,-4.41262 -2.48348,-4.49693 -2.338,-4.5939 -2.19308,-4.6716 -2.04321,-4.75922 -1.88506,-4.8281 -1.72747,-4.90303 -1.56822,-4.96859 -1.41228,-5.03088 -1.24477,-5.09864 -1.0778,-5.15761 -0.91691,-5.20279 -0.73232,-5.26231 -0.5659,-5.30142 -0.39343,-5.351 -0.2138,-5.38244 -0.022,-5.43257 0.14825,-5.44964 0.34714,-5.47775 0.52789,-5.50752 0.72294,-5.52183 0.91361,-5.53726 -3.829637,-0.70256 -0.941705,5.67446 -0.738926,5.65904 -0.543862,5.62929 -0.346573,5.61552 -0.164207,5.58684 0.03747,5.53892 0.214372,5.51963 0.393432,5.47335 0.581333,5.43862 0.763723,5.38409 0.929029,5.34055 1.109221,5.27938 1.27618,5.22318 1.44313,5.16532 1.61176,5.09368 1.77485,5.02481 1.9319,4.94987 2.08674,4.86556 2.23992,4.79393 2.39751,4.6997 2.5463,4.61871 2.69727,4.51897 2.83337,4.42308 2.98051,4.32556 3.1188,4.21865 3.25217,4.11122 3.39266,3.99384 3.52382,3.88472 3.65054,3.75966 3.77343,3.63624 3.90513,3.50949 4.01589,3.37227 -0.6877,-1.15275 0.6877,1.15275 0.19007,0.14044 0.19065,0.11246 0.19234,0.0893 0.19229,0.0656 0.19174,0.0441 0.18898,0.0163 0.18736,0 0.18294,-0.0221 0.17796,-0.0388 0.17192,-0.0562 0.16694,-0.0722 0.15922,-0.0876 0.15045,-0.10134 0.14161,-0.11407 0.13165,-0.12623 0.12183,-0.13604 0.1091,-0.14658 0.0953,-0.15481 0.0826,-0.16089 0.0688,-0.16863 0.0529,-0.17354 0.0366,-0.17797 0.0199,-0.18131 0,-0.18126 -0.0171,-0.18405 -0.0375,-0.18293 -0.0578,-0.18127 -0.081,-0.17796 -0.10134,-0.1747 -0.12682,-0.17023 -0.14988,-0.16422 -0.17632,-0.15758"
     id="path569"
     style="fill:#000000;fill-opacity:1;fill-rule:nonzero;stroke:none" /><path
     d="m 128.85301,371.34534 1.67125,-3.48632 -1.85695,-1.2525 -1.84318,-1.35112 -1.81784,-1.44921 -1.80737,-1.54176 -1.7743,-1.63104 -1.75116,-1.71809 -1.73188,-1.80847 -1.69826,-1.87901 -1.6663,-1.96496 -1.64207,-2.03055 -1.60403,-2.10544 -1.56822,-2.17603 -1.53846,-2.23497 -1.48832,-2.29941 -1.45912,-2.35399 -1.41339,-2.40688 -1.37758,-2.45868 -1.32631,-2.50224 -1.285545,-2.54899 -1.23099,-2.58653 -1.18856,-2.63337 -1.13842,-2.66036 -1.08387,-2.6879 -1.03263,-2.71655 -0.97641,-2.73971 -0.92628,-2.75954 -0.86346,-2.77718 -0.81056,-2.79315 -0.74058,-2.80196 -0.68712,-2.80859 -0.62322,-2.80526 -0.5593,-2.813 -3.83017,0.71523 0.57471,2.89123 0.6392,2.8962 0.70255,2.88628 0.77199,2.87692 0.82599,2.86808 0.89212,2.85542 0.94169,2.83447 1.00728,2.81797 1.06403,2.79149 1.11528,2.76615 1.16652,2.73476 1.21997,2.69284 1.27784,2.66477 1.3164,2.62399 1.36986,2.58048 1.408965,2.53361 1.46077,2.48513 1.50266,2.42892 1.55059,2.37383 1.58254,2.31321 1.63048,2.25092 1.66686,2.18375 1.70102,2.12087 1.74124,2.04047 1.77597,1.97269 1.80735,1.88339 1.84484,1.809 1.88066,1.72419 1.89774,1.63213 1.9396,1.54011 1.96496,1.44478 1.99472,1.3434 1.67125,-3.48632 -1.67125,3.48632 0.20497,0.11906 0.20279,0.0904 0.20168,0.0675 0.19837,0.0441 0.19505,0.0221 0.19067,0 0.18567,-0.0221 0.17985,-0.0397 0.17368,-0.0577 0.16532,-0.075 0.15824,-0.0904 0.14812,-0.105 0.13883,-0.1173 0.12828,-0.1296 0.11686,-0.14058 0.10499,-0.14988 0.0921,-0.15648 0.078,-0.16532 0.064,-0.17015 0.0502,-0.17501 0.0353,-0.1781 0.0176,-0.18117 -10e-4,-0.18249 -0.0176,-0.18119 -0.0397,-0.1794 -0.0577,-0.1781 -0.0776,-0.17368 -0.10046,-0.16885 -0.11993,-0.16265 -0.14542,-0.15606 -0.16883,-0.14541 -0.1922,-0.13751"
     id="path571"
     style="fill:#000000;fill-opacity:1;fill-rule:nonzero;stroke:none" /><path
     d="m 0.089725,190.85888 0,0 0.143261,7.0647 0.407759,7.07739 0.682721,7.06966 0.94942,7.0537 1.219972,7.02117 1.48226,6.98811 1.741795,6.94459 2.007388,6.89775 2.261412,6.8195 2.514884,6.75503 2.771111,6.67458 3.020726,6.58201 3.265934,6.4729 3.517752,6.36325 3.759655,6.2525 3.99824,6.11529 4.24236,5.97589 4.47653,5.82159 4.70962,5.67006 4.93886,5.49814 5.18239,5.32785 5.40006,5.13394 5.63094,4.9311 5.85246,4.73279 6.07121,4.51401 6.29492,4.28751 6.50872,4.05503 6.72086,3.80482 6.940185,3.55359 7.138,3.28358 7.35235,3.01134 7.55952,2.73309 1.23705,-3.69245 -7.39421,-2.6708 -7.19917,-2.95182 -7.00079,-3.22077 -6.78643,-3.47866 -6.583665,-3.72715 -6.37153,-3.96403 -6.15716,-4.19718 -5.94943,-4.42034 -5.73068,-4.62641 -5.50916,-4.84076 -5.29371,-5.0276 -5.06063,-5.20608 -4.84848,-5.38903 -4.61538,-5.54774 -4.38618,-5.71524 -4.15143,-5.85465 -3.92055,-5.99297 -3.684717,-6.11529 -3.439507,-6.24147 -3.206973,-6.35112 -2.957909,-6.44427 -2.7116,-6.53682 -2.468047,-6.61838 -2.217881,-6.69772 -1.960552,-6.74456 -1.710385,-6.80683 -1.450852,-6.85091 -1.19187,-6.88342 -0.933991,-6.90379 -0.66674,-6.9165 -0.40776,-6.9242 -0.128369,-6.9275 0,0"
     id="path573"
     style="fill:#000000;fill-opacity:1;fill-rule:nonzero;stroke:none" /><rect
     width="85.729996"
     height="85.736"
     x="170.87926"
     y="27.725601"
     transform="matrix(4.4082105,0,0,4.4082105,-751.95758,-120.67926)"
     clip-path="url(#clipPath2935)"
     id="rect3006"
     style="fill:url(#linearGradient2933);fill-opacity:1;stroke:none" /><g
     transform="matrix(4.4082105,0,0,4.4082105,-575.62917,-120.67926)"
     id="g3692"><g
       clip-path="url(#clipPath3686)"
       id="g3680"><path
         d="m 166.50558,48.32248 -0.001,0 -0.11475,0.023 -0.112,0.0355 -0.10663,0.05275 -0.102,0.06587 -0.0904,0.08225 -0.0763,0.09638 -0.0549,0.107375 -0.0379,0.104875 -0.0212,0.107625 -0.007,0.101375 0.004,0.09287 0.0124,0.09313 0.0187,0.0855 0.0231,0.0825 0.0282,0.078 0.0319,0.0765 0.0351,0.07263 0.0373,0.07012 0.0396,0.06912 0.0397,0.06413 0.0439,0.06237 0.044,0.06162 0.0439,0.05775 0.0461,0.05425 0.0453,0.04962 0.0465,0.04925 0.0503,0.04675 0.0511,0.04362 0.057,0.041 0.067,0.04075 0.0881,0.03863 0.12838,0.027 0.073,-0.88225 0.0857,0.01763 0.04,0.01675 0.0124,0.0075 -0.002,-0.0025 -0.0128,-0.01 -0.0156,-0.01563 -0.0222,-0.02163 -0.0249,-0.02837 -0.0247,-0.03013 -0.027,-0.03363 -0.0263,-0.034 -0.0234,-0.03825 -0.0261,-0.04013 -0.022,-0.03787 -0.0203,-0.039 -0.0174,-0.03787 -0.0149,-0.03475 -0.0113,-0.03325 -0.009,-0.02737 -0.005,-0.023 -0.002,-0.01313 -3.7e-4,-0.01 -3.8e-4,0.0025 -0.003,0.0135 -0.007,0.01625 -0.011,0.0245 -0.0174,0.02125 -0.0166,0.01412 -0.0128,0.0075 -3.7e-4,0.0025 0.012,-0.0038 0.0276,-0.0063 -0.001,0"
         id="path576"
         style="fill:#000000;fill-opacity:1;fill-rule:nonzero;stroke:none" /><path
         d="m 171.9707,49.702125 -0.002,0 -0.10487,-0.07689 -0.10988,-0.07689 -0.1155,-0.07589 -0.1215,-0.07589 -0.12725,-0.07614 -0.1325,-0.0755 -0.13787,-0.07337 -0.14275,-0.07374 -0.14638,-0.07124 -0.152,-0.06985 -0.15725,-0.06797 -0.16087,-0.06621 -0.16475,-0.06445 -0.16938,-0.06207 -0.17225,-0.05905 -0.1765,-0.05629 -0.18062,-0.05164 -0.18388,-0.04987 -0.18537,-0.04448 -0.18925,-0.04096 -0.19338,-0.03819 -0.19425,-0.03229 -0.198,-0.02751 -0.19775,-0.02136 -0.20262,-0.01784 -0.20275,-0.01256 -0.2055,-0.005 -0.20475,6.28e-4 -0.207,0.0087 -0.20838,0.0132 -0.20975,0.02136 -0.20862,0.02853 0.13175,0.879596 0.18037,-0.02488 0.17925,-0.01784 0.18,-0.0132 0.17938,-0.005 0.18062,-7.54e-4 0.17788,0.005 0.17862,0.0087 0.175,0.01419 0.17725,0.02136 0.17325,0.02387 0.17363,0.0289 0.16937,0.03166 0.16863,0.03744 0.16762,0.04096 0.16338,0.04272 0.16012,0.04799 0.15875,0.04987 0.15513,0.05201 0.15175,0.05491 0.14775,0.05729 0.14375,0.05918 0.13962,0.06156 0.135,0.06269 0.13225,0.06407 0.12575,0.06383 0.12013,0.06621 0.1155,0.06483 0.11025,0.06545 0.10375,0.06596 0.0985,0.06508 0.0921,0.06344 0.0844,0.0627 -0.002,0"
         id="path578"
         style="fill:#000000;fill-opacity:1;fill-rule:nonzero;stroke:none" /><path
         d="m 171.56958,51.04873 -0.002,0 0.10775,0.01125 0.1035,-0.0087 0.0914,-0.02975 0.0755,-0.04387 0.068,-0.04825 0.0464,-0.05063 0.0326,-0.04362 0.0319,-0.04362 0.0228,-0.0435 0.0222,-0.04325 0.0164,-0.0415 0.0155,-0.04037 0.01,-0.04363 0.0106,-0.03887 0.008,-0.04187 0.007,-0.04075 0.006,-0.04113 0.002,-0.03963 0.001,-0.04462 -3.8e-4,-0.04537 -10e-4,-0.04362 -0.006,-0.04463 -0.007,-0.046 -0.008,-0.04925 -0.0131,-0.04825 -0.0195,-0.051 -0.0228,-0.05 -0.0259,-0.0475 -0.0304,-0.05312 -0.0408,-0.05488 -0.0475,-0.05 -0.0525,-0.04325 -0.53637,0.705875 -0.0199,-0.01563 -0.0185,-0.0195 -0.0145,-0.02088 -0.008,-0.01625 -0.005,-0.0075 -0.005,-0.0087 -0.005,-0.0075 -0.001,-0.0037 0.002,-0.0025 0,6.25e-4 -0.001,0.0037 0.001,0.005 3.7e-4,0.0037 -0.001,0.0038 -0.002,0.0087 7.5e-4,0.0063 0,0.0062 -0.001,0.0038 0,0.005 -0.002,-0.0013 0.001,-7.5e-4 0.002,-0.0038 0.005,-0.0087 0.005,-0.01125 0.0127,-0.01525 0.0127,-0.01875 0.0259,-0.0295 0.046,-0.03112 0.0529,-0.03187 0.068,-0.022 0.0794,-0.0063 0.0829,0.0087 -0.002,0"
         id="path580"
         style="fill:#000000;fill-opacity:1;fill-rule:nonzero;stroke:none" /><path
         d="m 166.76283,50.456605 0.004,0 0.0319,0.0025 0.0528,0.005 0.0699,0.005 0.0854,0.0087 0.21613,0.02225 0.26787,0.02763 0.14888,0.016 0.15975,0.017 0.16837,0.01812 0.17575,0.01913 0.18025,0.02013 0.1875,0.021 0.19163,0.0215 0.1935,0.02238 0.197,0.023 0.197,0.02338 0.1985,0.02375 0.19587,0.02412 0.19563,0.02413 0.191,0.02437 0.18675,0.02412 0.18175,0.02275 0.17712,0.024 0.16688,0.02375 0.16025,0.02375 0.15087,0.023 0.13925,0.02063 0.12575,0.022 0.112,0.02125 0.0981,0.01738 0.1765,-0.865375 -0.11238,-0.02375 -0.12537,-0.02125 -0.13638,-0.02188 -0.14562,-0.02412 -0.1545,-0.023 -0.16375,-0.02375 -0.174,-0.02375 -0.17713,-0.02412 -0.18537,-0.02625 -0.19025,-0.02413 -0.1945,-0.02437 -0.19563,-0.02412 -0.1995,-0.02412 -0.19837,-0.02375 -0.19988,-0.02338 -0.197,-0.023 -0.197,-0.02225 -0.19162,-0.02163 -0.1875,-0.021 -0.18388,-0.02013 -0.17575,-0.01912 -0.16837,-0.01813 -0.15975,-0.017 -0.15238,-0.01588 -0.26787,-0.02775 -0.21963,-0.02225 -0.089,-0.0087 -0.0734,-0.0088 -0.0563,-0.005 -0.0419,-0.0038 0.004,0"
         id="path582"
         style="fill:#000000;fill-opacity:1;fill-rule:nonzero;stroke:none" /></g><path
       d="m 171.31906,50.160429 c -0.35063,-0.06804 -3.3714,-0.44148 -4.41561,-0.545895 l -0.35759,-0.03575 -0.0774,-0.111293 c -0.0798,-0.114757 -0.18203,-0.305822 -0.22565,-0.421844 -0.0311,-0.08262 -0.0308,-0.08271 0.27289,-0.121173 0.43716,-0.05537 0.7117,-0.06765 1.0913,-0.04887 1.20072,0.05948 2.44072,0.440817 3.55022,1.091803 0.35523,0.208428 0.37736,0.234829 0.16187,0.193019 z"
       id="path3690"
       style="fill:#fffbff;fill-opacity:1;stroke:none" /></g></svg>