<?xml version="1.0" encoding="UTF-8"?>
<svg xmlns="http://www.w3.org/2000/svg" xmlns:xlink="http://www.w3.org/1999/xlink" viewBox="0 0 96 96" width="96px" height="96px">
<g id="surface194476359">
<rect x="0" y="0" width="96" height="96" style="fill:rgb(100%,100%,100%);fill-opacity:1;stroke:none;"/>
<path style="fill-rule:nonzero;fill:rgb(100%,100%,100%);fill-opacity:1;stroke-width:4;stroke-linecap:butt;stroke-linejoin:round;stroke:rgb(100%,100%,100%);stroke-opacity:1;stroke-miterlimit:10;" d="M 101.197917 118.489583 L 175.416667 223.354167 C 161.09375 230.520833 145.020833 234.666667 128 234.666667 C 69.333333 234.666667 21.333333 186.666667 21.333333 128 C 21.333333 69.333333 69.333333 21.333333 128 21.333333 C 186.666667 21.333333 234.666667 69.333333 234.666667 128 C 234.666667 163.916667 216.625 195.78125 189.197917 215.135417 L 99.71875 88.708333 C 97.708333 85.864583 94.104167 84.645833 90.770833 85.708333 C 87.447917 86.770833 85.197917 89.854167 85.197917 93.333333 L 85.197917 168 C 85.197917 172.416667 88.770833 176 93.197917 176 C 97.614583 176 101.197917 172.416667 101.197917 168 Z M 101.197917 118.489583 " transform="matrix(0.375,0,0,0.375,0,0)"/>
<path style=" stroke:none;fill-rule:nonzero;fill:rgb(12.941177%,12.941177%,12.941177%);fill-opacity:1;" d="M 37.949219 63 C 37.949219 64.65625 36.605469 66 34.949219 66 C 33.289062 66 31.949219 64.65625 31.949219 63 L 31.949219 35 C 31.949219 33.695312 32.792969 32.539062 34.039062 32.140625 C 35.289062 31.742188 36.640625 32.199219 37.394531 33.265625 L 70.949219 80.675781 C 81.234375 73.417969 88 61.46875 88 48 C 88 26 70 8 48 8 C 26 8 8 26 8 48 C 8 70 26 88 48 88 C 54.382812 88 60.410156 86.445312 65.78125 83.757812 L 37.949219 44.433594 Z M 57.949219 33 C 57.949219 31.34375 59.289062 30 60.949219 30 C 62.605469 30 63.949219 31.34375 63.949219 33 L 63.949219 60.679688 L 57.949219 52.226562 Z M 57.949219 33 "/>
</g>
</svg>
